<?xml version="1.0" encoding="UTF-8"?><svg xmlns="http://www.w3.org/2000/svg" xmlns:xlink="http://www.w3.org/1999/xlink" height="1806.3" preserveAspectRatio="xMidYMid meet" version="1.0" viewBox="245.3 323.1 1962.0 1806.3" width="1962.0" zoomAndPan="magnify"><g fill="#424446" id="change1_1"><path d="M 1211.429688 492.617188 C 1258.242188 492.617188 1296.203125 454.65625 1296.203125 407.886719 C 1296.203125 361.078125 1258.242188 323.117188 1211.429688 323.117188 C 1164.609375 323.117188 1126.671875 361.078125 1126.671875 407.886719 C 1126.671875 454.65625 1164.609375 492.617188 1211.429688 492.617188"/><path d="M 1974.1875 1473.8125 L 1974.1875 673.714844 L 2173.585938 1473.8125 Z M 1749.398438 1473.8125 L 1948.757812 673.714844 L 1948.757812 1473.8125 Z M 503.746094 1473.8125 L 503.746094 673.714844 L 703.128906 1473.8125 Z M 278.953125 1473.8125 L 478.3125 673.714844 L 478.3125 1473.8125 Z M 2199.761719 1473.8125 L 1993.59375 646.363281 C 2022.125 632.738281 2041.988281 603.839844 2041.988281 570.097656 C 2041.988281 523.269531 2004.03125 485.328125 1957.246094 485.328125 C 1923.570312 485.328125 1894.671875 505.152344 1881.023438 533.644531 C 1716.332031 544.230469 1610.179688 604.019531 1514.484375 658.007812 C 1439.9375 700.082031 1373.097656 737.265625 1286.109375 751.265625 L 1286.109375 600.671875 L 1361.832031 600.671875 L 1361.832031 524.394531 L 1056.738281 524.394531 L 1056.738281 600.671875 L 1136.738281 600.671875 L 1136.738281 751.566406 C 1048.699219 737.832031 981.351562 700.445312 906.242188 658.007812 C 816.25 607.226562 717.035156 551.355469 568.5625 536.082031 C 555.460938 506.234375 525.730469 485.328125 491.042969 485.328125 C 456.792969 485.328125 427.480469 505.746094 414.105469 534.96875 C 413.253906 535.050781 412.484375 535.050781 411.636719 535.117188 L 412.054688 539.980469 C 408.460938 549.378906 406.28125 559.453125 406.28125 570.097656 C 406.28125 605.332031 427.800781 635.527344 458.445312 648.296875 L 252.769531 1473.8125 L 245.25 1473.8125 C 245.25 1473.8125 263.640625 1632.3125 491.042969 1632.3125 C 718.445312 1632.3125 736.839844 1473.8125 736.839844 1473.8125 L 729.316406 1473.8125 L 523.644531 648.296875 C 540.882812 641.109375 554.929688 628.230469 564.167969 612.222656 C 695.164062 626.414062 783.003906 676.042969 868.730469 724.441406 C 947.257812 768.789062 1028.429688 813.816406 1136.738281 828.425781 L 1136.738281 1976.820312 L 1001.640625 1976.820312 L 1001.640625 2053.082031 L 861.820312 2053.082031 L 861.820312 2129.378906 L 1602.355469 2129.378906 L 1602.355469 2053.082031 L 1459.328125 2053.082031 L 1459.328125 1976.820312 L 1286.109375 1976.820312 L 1286.109375 828.113281 C 1393.355469 813.21875 1473.996094 768.464844 1551.980469 724.441406 C 1643.304688 672.890625 1737.171875 619.996094 1882.90625 610.003906 C 1892.722656 628.230469 1908.824219 642.394531 1928.550781 649.542969 L 1723.183594 1473.8125 L 1715.683594 1473.8125 C 1715.683594 1473.8125 1734.042969 1632.3125 1961.484375 1632.3125 C 2188.886719 1632.3125 2207.25 1473.8125 2207.25 1473.8125 L 2199.761719 1473.8125"/></g></svg>