<?xml version="1.0" encoding="UTF-8" standalone="no"?><svg xmlns="http://www.w3.org/2000/svg" xmlns:xlink="http://www.w3.org/1999/xlink" fill="#000000" height="1883.8" preserveAspectRatio="xMidYMid meet" version="1" viewBox="245.3 284.3 1962.0 1883.8" width="1962" zoomAndPan="magnify"><g fill="#000000" id="change1_1"><path d="M 317.726562 2110.359375 L 530.273438 1179.71875 L 1261.847656 1179.71875 L 1180.78125 1274.890625 L 1168.421875 1289.378906 L 1066.601562 1408.859375 L 1043.300781 1436.207031 L 1003.050781 1483.429688 L 957.167969 1537.269531 L 1120.292969 1676.289062 L 1284.582031 1483.429688 L 1324.789062 1436.207031 L 1425.335938 1318.199219 L 1462.234375 1274.890625 L 1543.316406 1179.71875 L 1756.695312 1179.71875 L 1969.234375 2110.359375 Z M 1592.566406 1121.960938 L 1653.945312 1049.875 L 1490.84375 910.960938 L 1311.085938 1121.960938 L 484.230469 1121.960938 L 245.25 2168.160156 L 2041.722656 2168.160156 L 1802.777344 1121.960938 L 1592.566406 1121.960938"/><path d="M 1027.019531 1620.539062 L 929.890625 1537.78125 L 812.265625 1675.820312 C 812.265625 1675.820312 808.890625 1716.96875 799.207031 1770.398438 C 799.140625 1770.640625 799.070312 1770.878906 799.054688 1771.148438 C 799.070312 1771.121094 799.105469 1771.050781 799.105469 1770.949219 C 786.46875 1840.339844 763.179688 1930.148438 722.710938 1977.679688 L 892.414062 1757.550781 C 886.464844 1745.511719 887.777344 1730.570312 897.03125 1719.730469 C 909.429688 1705.210938 931.25 1703.46875 945.828125 1715.808594 C 960.320312 1728.21875 962.109375 1750.078125 949.683594 1764.601562 C 940.457031 1775.410156 925.933594 1779.128906 913.109375 1775.140625 L 722.710938 1977.679688 C 794.570312 1893.359375 1006.539062 1841.328125 1006.539062 1841.328125 L 1124.140625 1703.300781 L 1027.019531 1620.539062"/><path d="M 1683.195312 1047.144531 L 2107.164062 549.527344 L 2126.296875 566.265625 L 1699.742188 1066.957031 L 1743.710938 1104.429688 L 2207.25 560.402344 L 1953.007812 337.578125 L 1914.929688 381.019531 L 1915.226562 381.25 L 1488.917969 881.644531 L 1683.195312 1047.144531"/><path d="M 842.582031 1595.648438 L 535.578125 1595.648438 L 525.707031 1646.691406 L 799.105469 1646.691406 L 842.582031 1595.648438"/><path d="M 769.796875 1770.398438 L 501.632812 1770.398438 L 490.964844 1826.25 L 757.710938 1826.25 C 762.535156 1807.121094 766.492188 1788.199219 769.796875 1770.398438"/><path d="M 1745.222656 1770.398438 L 1104.9375 1770.398438 L 1057.34375 1826.246094 L 1755.214844 1826.246094 L 1745.222656 1770.398438"/><path d="M 1716.539062 1595.648438 L 1226.929688 1595.648438 L 1183.4375 1646.691406 L 1722.648438 1646.691406 L 1716.539062 1595.648438"/><path d="M 1142.808594 1274.890625 L 597.636719 1274.890625 L 589.230469 1318.199219 L 1105.871094 1318.199219 L 1142.808594 1274.890625"/><path d="M 1655.238281 1274.890625 L 1500.203125 1274.890625 L 1463.289062 1318.203125 L 1663.074219 1318.203125 L 1655.238281 1274.890625"/><path d="M 1005.328125 1436.210938 L 561.96875 1436.210938 L 555.746094 1483.429688 L 965.109375 1483.429688 L 1005.328125 1436.210938"/><path d="M 1684.484375 1436.207031 L 1362.765625 1436.207031 L 1322.527344 1483.429688 L 1693.03125 1483.429688 L 1684.484375 1436.207031"/><path d="M 1234.300781 2011.441406 L 1788.792969 2011.441406 L 1776.558594 1943.960938 L 1234.300781 1943.960938 L 1234.300781 2011.441406"/><path d="M 2182.992188 403.152344 L 2043.523438 284.34375 L 1990.757812 346.273438 L 2130.242188 465.132812 L 2182.992188 403.152344"/></g></svg>